<svg aria-hidden="true" style="position: absolute; width: 0; height: 0; overflow: hidden;" version="1.1" xmlns="http://www.w3.org/2000/svg" xmlns:xlink="http://www.w3.org/1999/xlink">
<defs>
<symbol id="vector" viewBox="0 0 17 32">
<path d="M-6.889 9.183c-0.684-0.684-0.684-1.793 0-2.476l6.191-6.191c0.684-0.684 1.792-0.684 2.476 0l14.239 14.239c0.684 0.684 0.684 1.792 0 2.476l-14.239 14.239c-0.684 0.684-1.792 0.684-2.476 0l-6.191-6.191c-0.684-0.684-0.684-1.793 0-2.476l5.572-5.572c0.684-0.684 0.684-1.793 0-2.476l-5.572-5.572z"></path>
</symbol>
<symbol id="cards" viewBox="0 0 38 32">
<path fill="#ffb800" style="fill: var(--color1, #ffb800)" d="M32.692 0.871h-22.618c-2.732 0-4.955 2.223-4.955 4.955v0.67h-0.163c-2.732 0-4.955 2.223-4.955 4.955v14.722c0 2.732 2.223 4.955 4.955 4.955h22.618c2.732 0 4.955-2.223 4.955-4.955v-0.67h0.163c2.732 0 4.955-2.223 4.955-4.955v-14.722c-0-2.732-2.223-4.955-4.955-4.955zM30.323 26.173c0 1.516-1.233 2.749-2.749 2.749h-22.618c-1.516 0-2.749-1.233-2.749-2.749v-6.552h28.117v6.552zM30.323 17.415h-28.117v-3.088h28.117v3.088zM30.323 12.121h-28.117v-0.67c0-1.516 1.233-2.749 2.749-2.749h22.618c1.516 0 2.749 1.233 2.749 2.749v0.67zM35.441 20.548c0 1.516-1.233 2.749-2.749 2.749h-0.163v-11.846c0-2.732-2.223-4.955-4.955-4.955h-20.249v-0.67c0-1.516 1.233-2.749 2.749-2.749h22.618c1.516 0 2.749 1.233 2.749 2.749v14.722z"></path>
<path fill="#ffb800" style="fill: var(--color1, #ffb800)" d="M5.343 23.004h9.706v2.206h-9.706v-2.206z"></path>
<path fill="#ffb800" style="fill: var(--color1, #ffb800)" d="M23.137 23.004h4.048v2.206h-4.048v-2.206z"></path>
</symbol>
<symbol id="man" viewBox="0 0 26 32">
<path fill="#ffb800" style="fill: var(--color1, #ffb800)" d="M25.007 26.486c-0.071-4.349-4.518-5.634-7.764-6.572-0.379-0.109-0.743-0.215-1.084-0.32v-1.794c0.664-0.416 1.245-0.952 1.715-1.576h1.978c0.968 0 1.755-0.787 1.755-1.755v-2.125c0.117-0.274 0.183-0.574 0.183-0.891v-0.661c0-0.316-0.065-0.617-0.183-0.89v-1.096c0-4.856-3.95-8.806-8.806-8.806-4.855 0-8.804 3.95-8.804 8.806v1.065c0 0.008 0.001 0.016 0.001 0.025-0.119 0.275-0.185 0.578-0.185 0.896v0.661c0 1.249 1.016 2.265 2.264 2.265h0.516c0.358 1.716 1.411 3.179 2.85 4.081v1.794c-0.341 0.105-0.706 0.21-1.085 0.32-3.247 0.938-7.693 2.223-7.764 6.572-0 0.003-0 0.007-0 0.010v4.879c0 0.345 0.28 0.625 0.625 0.625h1.853c0.345 0 0.625-0.28 0.625-0.625s-0.28-0.625-0.625-0.625h-1.228v-4.249c0.026-1.517 0.723-2.655 2.193-3.58 0.97-0.61 2.156-1.045 3.325-1.409l1.51 2.942c0.168 0.328 0.599 0.439 0.906 0.233l0.673-0.454 0.578 2.173-0.99 4.343h-1.354c-0.345 0-0.625 0.28-0.625 0.625s0.28 0.625 0.625 0.625h15.7c0.345 0 0.625-0.28 0.625-0.625v-4.879c0-0.003 0-0.007-0-0.010zM16.896 21.115c0.041 0.012 0.083 0.024 0.125 0.036l-1.080 2.107-2.022-1.363 1.713-1.156c0.398 0.125 0.821 0.248 1.265 0.376zM12.8 22.648l1.253 0.845-0.606 2.277h-1.296l-0.606-2.276 1.254-0.846zM12.8 21.141l-2.109-1.422v-1.316c0.66 0.233 1.37 0.361 2.108 0.361s1.449-0.128 2.109-0.361v1.315l-2.108 1.422zM17.892 8.921c-0.009-0.005-0.017-0.011-0.026-0.016-1.282-0.816-2.39-1.521-4.126-1.025-0.016 0.005-0.032 0.010-0.048 0.016-0.368 0.138-0.702 0.267-1.026 0.392-1.976 0.761-3.056 1.176-4.959 1.123v-0.5c0-2.808 2.284-5.092 5.092-5.092s5.092 2.284 5.092 5.092v0.012h0zM20.356 14.468c0 0.279-0.227 0.505-0.505 0.505h-1.246c0.176-0.399 0.312-0.819 0.403-1.255h0.516c0.293 0 0.574-0.057 0.831-0.159v0.909h-0zM20.539 11.453c0 0.56-0.455 1.016-1.014 1.016h-0.384c0-0.016 0.001-2.69 0.001-2.69h0.383c0.559 0 1.014 0.455 1.014 1.014v0.661zM6.075 12.469c-0.559 0-1.014-0.456-1.014-1.015v-0.661c0-0.559 0.455-1.014 1.014-1.014h0.383c0 0 0 2.675 0.001 2.69h-0.384zM6.47 8.529h-0.395c-0.292 0-0.571 0.056-0.828 0.157 0.065-4.111 3.428-7.436 7.553-7.436 4.126 0 7.49 3.325 7.555 7.437-0.257-0.102-0.537-0.158-0.83-0.158h-0.395c-0.197-3.321-2.961-5.962-6.33-5.962s-6.133 2.641-6.33 5.962zM7.746 13.030c-0-0.001-0-0.001-0-0.002-0.024-0.199-0.037-0.401-0.037-0.606v-1.763c2.138 0.052 3.414-0.439 5.408-1.206 0.314-0.121 0.639-0.246 0.992-0.379 1.181-0.33 1.86 0.103 3.087 0.884 0.213 0.136 0.446 0.284 0.697 0.437v2.027c0 0.929-0.252 1.801-0.688 2.552h-4.404c-0.345 0-0.625 0.28-0.625 0.625s0.28 0.625 0.625 0.625h3.383c-0.9 0.802-2.085 1.29-3.383 1.29-2.602-0-4.753-1.962-5.054-4.484zM9.661 23.258l-1.082-2.107c0.041-0.012 0.083-0.024 0.124-0.036 0.443-0.128 0.867-0.251 1.265-0.376l1.714 1.156-2.021 1.363zM11.32 30.75l0.851-3.73h1.26l0.852 3.73h-2.962zM23.758 30.75h-8.193l-0.992-4.344 0.578-2.174 0.675 0.455c0.306 0.207 0.737 0.095 0.906-0.233l1.508-2.942c1.169 0.364 2.355 0.798 3.325 1.408 1.47 0.925 2.167 2.062 2.193 3.58v4.249h-0z"></path>
<path fill="#ffb800" style="fill: var(--color1, #ffb800)" d="M21.289 27.625h-3.15c-0.345 0-0.625 0.28-0.625 0.625s0.28 0.625 0.625 0.625h3.15c0.345 0 0.625-0.28 0.625-0.625s-0.28-0.625-0.625-0.625z"></path>
<path fill="#ffb800" style="fill: var(--color1, #ffb800)" d="M5.877 30.75c-0.345 0-0.625 0.28-0.625 0.625s0.28 0.625 0.625 0.625h0.002c0.345 0 0.624-0.28 0.624-0.625s-0.281-0.625-0.626-0.625z"></path>
</symbol>
<symbol id="checked" viewBox="0 0 32 32">
<path fill="#ffb800" style="fill: var(--color1, #ffb800)" d="M16 32c-0.149 0-0.3-0.033-0.438-0.102-6.326-3.080-11.563-6.404-11.563-15.899v-11c0-0.421 0.263-0.796 0.658-0.939l11-4c0.221-0.080 0.463-0.080 0.684 0l11 4c0.396 0.144 0.658 0.519 0.658 0.939v11c0 9.494-5.236 12.819-11.563 15.899-0.138 0.068-0.288 0.102-0.437 0.102zM6 5.7v10.3c0 7.46 3.367 10.594 10 13.885 6.633-3.291 10-6.425 10-13.885v-10.3l-10-3.636-10 3.636z"></path>
<path fill="#ffb800" style="fill: var(--color1, #ffb800)" d="M15.293 20l-4.707-4.707 1.414-1.414 3.293 3.293 6.293-6.293 1.414 1.414-7.707 7.707z"></path>
</symbol>
<symbol id="box" viewBox="0 0 32 32">
<path fill="#ffb800" style="fill: var(--color1, #ffb800)" d="M30.733 7.061l-14.529-7.014c-0.129-0.062-0.279-0.062-0.408 0l-14.529 7.014c-0.162 0.078-0.265 0.242-0.265 0.422v17.034c0 0.18 0.103 0.344 0.265 0.422l14.529 7.014c0.064 0.031 0.134 0.047 0.204 0.047s0.139-0.016 0.204-0.047l14.529-7.014c0.162-0.078 0.265-0.242 0.265-0.422v-17.034c0-0.18-0.103-0.344-0.265-0.422zM16 0.989l13.451 6.494-3.899 1.882c-0.025-0.019-0.051-0.036-0.079-0.050l-13.36-6.449 3.887-1.877zM11.054 3.396l13.432 6.484-2.751 1.328-13.426-6.482 2.745-1.331zM24.8 10.769v4.909l-2.57 1.24v-4.909l2.57-1.24zM30.060 24.223l-13.592 6.561v-15.993l3.242-1.565c0.233-0.113 0.331-0.393 0.218-0.626s-0.393-0.331-0.626-0.218l-3.303 1.595-1.3-0.628c-0.233-0.113-0.513-0.015-0.626 0.218s-0.015 0.513 0.218 0.626l1.239 0.598v15.993l-13.592-6.561v-15.993l10.35 4.997c0.066 0.032 0.135 0.047 0.203 0.047 0.174 0 0.342-0.098 0.422-0.265 0.113-0.233 0.015-0.513-0.218-0.626l-10.148-4.899 4.657-2.248 14.081 6.798c0.002 0.003 0.004 0.005 0.006 0.008v5.625c0 0.161 0.083 0.311 0.22 0.397 0.076 0.048 0.162 0.072 0.249 0.072 0.070 0 0.139-0.015 0.204-0.047l3.507-1.693c0.162-0.078 0.265-0.242 0.265-0.422v-5.656l4.323-2.087v15.993z"></path>
<path fill="#ffb800" style="fill: var(--color1, #ffb800)" d="M5.808 22.405l-2.132-1.029c-0.233-0.113-0.513-0.015-0.626 0.218s-0.015 0.513 0.218 0.626l2.132 1.029c0.066 0.032 0.135 0.047 0.203 0.047 0.174 0 0.342-0.098 0.422-0.265 0.113-0.233 0.015-0.513-0.218-0.626z"></path>
<path fill="#ffb800" style="fill: var(--color1, #ffb800)" d="M7.77 21.128l-4.092-1.975c-0.233-0.113-0.513-0.015-0.626 0.218s-0.015 0.513 0.218 0.626l4.092 1.975c0.066 0.032 0.135 0.047 0.203 0.047 0.174 0 0.342-0.098 0.422-0.265 0.113-0.233 0.015-0.514-0.218-0.626z"></path>
</symbol>
<symbol id="star" viewBox="0 0 32 32">
<path fill="#fac917" style="fill: var(--color1, #fac917)" d="M16 0.783l4.944 10.018 11.056 1.606-8 7.798 1.888 11.011-9.888-5.199-9.889 5.199 1.889-11.011-8-7.798 11.056-1.606z"></path>
</symbol>
<symbol id="icon-star" viewBox="0 0 32 32">
<path fill="#ffb800" style="fill: var(--color1, #ffb800)" d="M23.243 26.553l-6.833-3.747-6.769 3.867 1.394-7.765-5.709-5.351 7.695-1.051 3.241-7.172 3.361 7.115 7.709 0.917-5.617 5.449z"></path>
</symbol>
<symbol id="mob-menu-close" viewBox="0 0 32 32">
<path d="M7.494 6.58c-.564.266-1.04.918-1.04 1.42 0 .548-.01.538 3.858 4.414L13.89 16l-3.604 3.614c-2.718 2.724-3.632 3.672-3.718 3.856-.246.524-.11 1.074.39 1.572.498.5 1.048.636 1.572.39.184-.086 1.132-1 3.856-3.718L16 18.108l3.614 3.606c2.724 2.718 3.672 3.632 3.856 3.718.524.246 1.074.11 1.572-.39.5-.498.636-1.048.39-1.572-.086-.184-1-1.132-3.718-3.856L18.11 16l3.582-3.586c3.87-3.878 3.854-3.858 3.854-4.414 0-.694-.852-1.546-1.546-1.546-.556 0-.536-.016-4.414 3.854L16 13.89l-3.586-3.582c-3.058-3.052-3.63-3.602-3.88-3.718a1.125 1.125 0 0 0-1.047-.007l.006-.003z"/>
</symbol>
</defs>
</svg>
