<?xml version="1.0" encoding="utf-8"?><svg viewBox="0 0 100 100" xmlns="http://www.w3.org/2000/svg" xmlns:xlink="http://www.w3.org/1999/xlink"><style>:root>svg{display:none}:root>svg:target{display:block}</style><svg aria-hidden="true" viewBox="0 0 100 100" id="sptite" xmlns="http://www.w3.org/2000/svg"><defs><symbol id="avector" viewBox="0 0 17 32"><path d="M-6.889 9.183a1.75 1.75 0 0 1 0-2.476L-.698.516a1.75 1.75 0 0 1 2.476 0l14.239 14.239a1.75 1.75 0 0 1 0 2.476L1.778 31.47a1.75 1.75 0 0 1-2.476 0l-6.191-6.191a1.75 1.75 0 0 1 0-2.476l5.572-5.572a1.75 1.75 0 0 0 0-2.476l-5.572-5.572z"/></symbol><symbol id="acards" viewBox="0 0 38 32"><path d="M32.692.871H10.074a4.96 4.96 0 0 0-4.955 4.955v.67h-.163a4.96 4.96 0 0 0-4.955 4.955v14.722a4.96 4.96 0 0 0 4.955 4.955h22.618a4.96 4.96 0 0 0 4.955-4.955v-.67h.163a4.96 4.96 0 0 0 4.955-4.955V5.826A4.96 4.96 0 0 0 32.692.871zm-2.369 25.302a2.752 2.752 0 0 1-2.749 2.749H4.956a2.752 2.752 0 0 1-2.749-2.749v-6.552h28.117v6.552zm0-8.758H2.206v-3.088h28.117v3.088zm0-5.294H2.206v-.67a2.752 2.752 0 0 1 2.749-2.749h22.618a2.752 2.752 0 0 1 2.749 2.749v.67zm5.118 8.427a2.752 2.752 0 0 1-2.749 2.749h-.163V11.451a4.96 4.96 0 0 0-4.955-4.955H7.325v-.67a2.752 2.752 0 0 1 2.749-2.749h22.618a2.752 2.752 0 0 1 2.749 2.749v14.722z"/><path d="M5.343 23.004h9.706v2.206H5.343v-2.206zm17.794 0h4.048v2.206h-4.048v-2.206z"/></symbol><symbol id="aman" viewBox="0 0 26 32"><path d="M25.007 26.486c-.071-4.349-4.518-5.634-7.764-6.572a61.476 61.476 0 0 1-1.084-.32V17.8a6.411 6.411 0 0 0 1.715-1.576h1.978c.968 0 1.755-.787 1.755-1.755v-2.125a2.26 2.26 0 0 0 .183-.891v-.661c0-.316-.065-.617-.183-.89V8.806C21.607 3.95 17.657 0 12.801 0 7.946 0 3.997 3.95 3.997 8.806v1.065l.001.025a2.25 2.25 0 0 0-.185.896v.661a2.267 2.267 0 0 0 2.264 2.265h.516a6.36 6.36 0 0 0 2.85 4.081v1.794c-.341.105-.706.21-1.085.32-3.247.938-7.693 2.223-7.764 6.572v4.889c0 .345.28.625.625.625h1.853a.625.625 0 0 0 0-1.25H1.844V26.5c.026-1.517.723-2.655 2.193-3.58.97-.61 2.156-1.045 3.325-1.409l1.51 2.942a.632.632 0 0 0 .906.233l.673-.454.578 2.173-.99 4.343H8.685a.625.625 0 0 0 0 1.25h15.7c.345 0 .625-.28.625-.625v-4.889zm-8.111-5.371.125.036-1.08 2.107-2.022-1.363 1.713-1.156c.398.125.821.248 1.265.376zM12.8 22.648l1.253.845-.606 2.277h-1.296l-.606-2.276 1.254-.846zm0-1.507-2.109-1.422v-1.316a6.323 6.323 0 0 0 4.217 0v1.315L12.8 21.14zm5.092-12.22-.026-.016c-1.282-.816-2.39-1.521-4.126-1.025l-.048.016c-.368.138-.702.267-1.026.392-1.976.761-3.056 1.176-4.959 1.123v-.5c0-2.808 2.284-5.092 5.092-5.092s5.092 2.284 5.092 5.092v.012zm2.464 5.547a.506.506 0 0 1-.505.505h-1.246c.176-.399.312-.819.403-1.255h.516c.293 0 .574-.057.831-.159v.909zm.183-3.015c0 .56-.455 1.016-1.014 1.016h-.384l.001-2.69h.383c.559 0 1.014.455 1.014 1.014v.661zM6.075 12.469a1.016 1.016 0 0 1-1.014-1.015v-.661c0-.559.455-1.014 1.014-1.014h.383l.001 2.69h-.384zm.395-3.94h-.395c-.292 0-.571.056-.828.157C5.312 4.575 8.675 1.25 12.8 1.25c4.126 0 7.49 3.325 7.555 7.437a2.245 2.245 0 0 0-.83-.158h-.395c-.197-3.321-2.961-5.962-6.33-5.962S6.667 5.208 6.47 8.529zm1.276 4.501v-.002a5.056 5.056 0 0 1-.037-.606v-1.763c2.138.052 3.414-.439 5.408-1.206.314-.121.639-.246.992-.379 1.181-.33 1.86.103 3.087.884.213.136.446.284.697.437v2.027a5.07 5.07 0 0 1-.688 2.552h-4.404a.625.625 0 0 0 0 1.25h3.383a5.069 5.069 0 0 1-3.383 1.29 5.098 5.098 0 0 1-5.054-4.484zm1.915 10.228-1.082-2.107.124-.036c.443-.128.867-.251 1.265-.376l1.714 1.156-2.021 1.363zm1.659 7.492.851-3.73h1.26l.852 3.73h-2.962zm12.438 0h-8.193l-.992-4.344.578-2.174.675.455a.632.632 0 0 0 .906-.233l1.508-2.942c1.169.364 2.355.798 3.325 1.408 1.47.925 2.167 2.062 2.193 3.58v4.249z"/><path d="M21.289 27.625h-3.15a.625.625 0 0 0 0 1.25h3.15a.625.625 0 0 0 0-1.25zM5.877 30.75a.625.625 0 0 0 0 1.25h.002a.624.624 0 1 0-.002-1.25z"/></symbol><symbol id="achecked" viewBox="0 0 32 32"><path d="M16 32a.98.98 0 0 1-.438-.102c-6.326-3.08-11.563-6.404-11.563-15.899v-11c0-.421.263-.796.658-.939l11-4c.221-.08.463-.08.684 0l11 4a.998.998 0 0 1 .658.939v11c0 9.494-5.236 12.819-11.563 15.899a.99.99 0 0 1-.437.102zM6 5.7V16c0 7.46 3.367 10.594 10 13.885C22.633 26.594 26 23.46 26 16V5.7L16 2.064 6 5.7z"/><path d="m15.293 20-4.707-4.707L12 13.879l3.293 3.293 6.293-6.293L23 12.293 15.293 20z"/></symbol><symbol id="abox" viewBox="0 0 32 32"><path d="M30.733 7.061 16.204.047a.47.47 0 0 0-.408 0L1.267 7.061a.468.468 0 0 0-.265.422v17.034c0 .18.103.344.265.422l14.529 7.014a.469.469 0 0 0 .408 0l14.529-7.014a.468.468 0 0 0 .265-.422V7.483a.468.468 0 0 0-.265-.422zM16 .989l13.451 6.494-3.899 1.882a.5.5 0 0 0-.079-.05l-13.36-6.449L16 .989zm-4.946 2.407L24.486 9.88l-2.751 1.328L8.309 4.726l2.745-1.331zM24.8 10.769v4.909l-2.57 1.24v-4.909l2.57-1.24zm5.26 13.454-13.592 6.561V14.791l3.242-1.565a.469.469 0 1 0-.408-.844l-3.303 1.595-1.3-.628a.469.469 0 1 0-.408.844l1.239.598v15.993L1.938 24.223V8.23l10.35 4.997a.468.468 0 1 0 .407-.844L2.547 7.484l4.657-2.248 14.081 6.798.006.008v5.625a.469.469 0 0 0 .673.422l3.507-1.693a.468.468 0 0 0 .265-.422v-5.656l4.323-2.087v15.993z"/><path d="m5.808 22.405-2.132-1.029a.469.469 0 1 0-.408.844L5.4 23.249a.468.468 0 1 0 .407-.844zm1.962-1.277-4.092-1.975a.469.469 0 1 0-.408.844l4.092 1.975a.468.468 0 1 0 .407-.844z"/></symbol><symbol id="astar" viewBox="0 0 32 32"><path d="m16 .783 4.944 10.018L32 12.407l-8 7.798 1.888 11.011L16 26.017l-9.889 5.199L8 20.205l-8-7.798 11.056-1.606z"/></symbol><symbol id="aicon-star" viewBox="0 0 32 32"><path d="m23.243 26.553-6.833-3.747-6.769 3.867 1.394-7.765-5.709-5.351 7.695-1.051 3.241-7.172 3.361 7.115 7.709.917-5.617 5.449z"/></symbol><symbol id="amob-menu-close" viewBox="0 0 32 32"><path d="M7.494 6.58c-.564.266-1.04.918-1.04 1.42 0 .548-.01.538 3.858 4.414L13.89 16l-3.604 3.614c-2.718 2.724-3.632 3.672-3.718 3.856-.246.524-.11 1.074.39 1.572.498.5 1.048.636 1.572.39.184-.086 1.132-1 3.856-3.718L16 18.108l3.614 3.606c2.724 2.718 3.672 3.632 3.856 3.718.524.246 1.074.11 1.572-.39.5-.498.636-1.048.39-1.572-.086-.184-1-1.132-3.718-3.856L18.11 16l3.582-3.586c3.87-3.878 3.854-3.858 3.854-4.414 0-.694-.852-1.546-1.546-1.546-.556 0-.536-.016-4.414 3.854L16 13.89l-3.586-3.582c-3.058-3.052-3.63-3.602-3.88-3.718a1.125 1.125 0 0 0-1.047-.007l.006-.003z"/></symbol></defs></svg></svg>